# xmcd
#
# Track frame offsets: 
#        150
#        14205
#        28847
#        37915
#        54565
#        68065
#        81952
#        95937
#        105910
#        115317
#        141700
#        152640
#        162320
#        174585
#        189720
#        203005
#        216735
#        227175
#        237755
#        257030
#        271047
#        280272
#        291950
#        303185
#
# Disc length: 4286 seconds
#
# Revision: 0
# Processed by: cddbd v1.5.2PL0 Copyright (c) Steve Scherf et al.
# Submitted via: ExactAudioCopy v1.0b2
#
DISCID=6910bc18
DTITLE=Claude Debussy - 24 Preludes - Ilja Hurnik
DYEAR=1900
DGENRE=Classical
TTITLE0=Danseuses de Delphes
TTITLE1=Voiles
TTITLE2=Le vent dans la plaine
TTITLE3=Les sons et les parfums tournent dans l'air du soir
TTITLE4=Les collines d'Anacapri
TTITLE5=Des pas sul la neige
TTITLE6=Ce qu'a vu le vent d'ouest
TTITLE7=La fille aux cheveux de lin
TTITLE8=La sérénade interrompue
TTITLE9=La cathédrale engloutie
TTITLE10=La danse du Puck
TTITLE11=Minstrels
TTITLE12=Brouillards
TTITLE13=Feuilles mortes
TTITLE14=La puerta del Vino
TTITLE15=Les fées sont d'exquises danseueses
TTITLE16=Bruyeres
TTITLE17=General Lavine - eccentric
TTITLE18=La terrase des audiences du clair de lune
TTITLE19=Ondine
TTITLE20=Hommage a S. Pickwick Esq. P.P.M.P.C
TTITLE21=Canope
TTITLE22=Les tirces altrnées
TTITLE23=Feux d'artifice
EXTD=
EXTT0=
EXTT1=
EXTT2=
EXTT3=
EXTT4=
EXTT5=
EXTT6=
EXTT7=
EXTT8=
EXTT9=
EXTT10=
EXTT11=
EXTT12=
EXTT13=
EXTT14=
EXTT15=
EXTT16=
EXTT17=
EXTT18=
EXTT19=
EXTT20=
EXTT21=
EXTT22=
EXTT23=
PLAYORDER=
